<svg viewBox="0 0 1000 700" xmlns="http://www.w3.org/2000/svg">
  <!-- Styles -->
  <style>
    .entity {
      fill: #e6f2ff;
      stroke: #3498db;
      stroke-width: 2;
    }
    .relationship {
      fill: #ffe6e6;
      stroke: #e74c3c;
      stroke-width: 2;
    }
    .label {
      font-family: Arial, sans-serif;
      font-size: 12px;
      font-weight: bold;
    }
    .attribute {
      font-family: Arial, sans-serif;
      font-size: 11px;
    }
    .pk {
      text-decoration: underline;
      font-weight: bold;
    }
    .line {
      stroke: #34495e;
      stroke-width: 1.5;
    }
    .cardinality {
      font-family: Arial, sans-serif;
      font-size: 12px;
      font-weight: bold;
    }
  </style>

  <!-- ENTITIES -->
  
  <!-- Users Entity -->
  <rect x="50" y="200" width="180" height="220" rx="5" ry="5" class="entity" />
  <text x="140" y="225" text-anchor="middle" class="label">USERS</text>
  <line x1="50" y1="235" x2="230" y2="235" class="line" />
  <text x="60" y="255" class="attribute pk">User_ID</text>
  <text x="60" y="275" class="attribute">Email_ID</text>
  <text x="60" y="295" class="attribute">Phone_No</text>
  <text x="60" y="315" class="attribute">Pass_word</text>
  <text x="60" y="335" class="attribute">First_name</text>
  <text x="60" y="355" class="attribute">Last_name</text>
  <text x="60" y="375" class="attribute">City</text>
  <text x="60" y="395" class="attribute">PinCode</text>
  <text x="60" y="415" class="attribute">DOB</text>

  <!-- Posts Entity -->
  <rect x="350" y="200" width="160" height="140" rx="5" ry="5" class="entity" />
  <text x="430" y="225" text-anchor="middle" class="label">POSTS</text>
  <line x1="350" y1="235" x2="510" y2="235" class="line" />
  <text x="360" y="255" class="attribute pk">Post_ID</text>
  <text x="360" y="275" class="attribute">Posted_User_ID</text>
  <text x="360" y="295" class="attribute">Post_Date</text>
  <text x="360" y="315" class="attribute">Post_Content</text>

  <!-- Comments Entity -->
  <rect x="650" y="200" width="180" height="140" rx="5" ry="5" class="entity" />
  <text x="740" y="225" text-anchor="middle" class="label">POST_COMMENTS</text>
  <line x1="650" y1="235" x2="830" y2="235" class="line" />
  <text x="660" y="255" class="attribute pk">Comment_ID</text>
  <text x="660" y="275" class="attribute">Post_ID</text>
  <text x="660" y="295" class="attribute">Commented_Date</text>
  <text x="660" y="315" class="attribute">Comment_Content</text>
  <text x="660" y="335" class="attribute">Commented_User_ID</text>

  <!-- Pages Entity -->
  <rect x="350" y="450" width="160" height="120" rx="5" ry="5" class="entity" />
  <text x="430" y="475" text-anchor="middle" class="label">PAGES</text>
  <line x1="350" y1="485" x2="510" y2="485" class="line" />
  <text x="360" y="505" class="attribute pk">Page_ID</text>
  <text x="360" y="525" class="attribute">Page_Name</text>
  <text x="360" y="545" class="attribute">Page_Content</text>

  <!-- Friends (Junction) Entity -->
  <rect x="50" y="50" width="180" height="90" rx="5" ry="5" class="entity" />
  <text x="140" y="75" text-anchor="middle" class="label">FRIENDS</text>
  <line x1="50" y1="85" x2="230" y2="85" class="line" />
  <text x="60" y="105" class="attribute pk">User_ID</text>
  <text x="60" y="125" class="attribute pk">Friend_ID</text>

  <!-- Post Likes (Junction) Entity -->
  <rect x="350" y="50" width="160" height="90" rx="5" ry="5" class="entity" />
  <text x="430" y="75" text-anchor="middle" class="label">POST_LIKES</text>
  <line x1="350" y1="85" x2="510" y2="85" class="line" />
  <text x="360" y="105" class="attribute pk">Post_ID</text>
  <text x="360" y="125" class="attribute pk">Liked_User_ID</text>

  <!-- Post Shares (Junction) Entity -->
  <rect x="650" y="50" width="180" height="90" rx="5" ry="5" class="entity" />
  <text x="740" y="75" text-anchor="middle" class="label">POST_SHARES</text>
  <line x1="650" y1="85" x2="830" y2="85" class="line" />
  <text x="660" y="105" class="attribute pk">Post_ID</text>
  <text x="660" y="125" class="attribute pk">Shared_User_ID</text>

  <!-- Page Likes (Junction) Entity -->
  <rect x="650" y="450" width="180" height="90" rx="5" ry="5" class="entity" />
  <text x="740" y="475" text-anchor="middle" class="label">PAGE_LIKES</text>
  <line x1="650" y1="485" x2="830" y2="485" class="line" />
  <text x="660" y="505" class="attribute pk">Page_ID</text>
  <text x="660" y="525" class="attribute pk">Page_User_ID</text>

  <!-- Comments Like (Junction) Entity -->
  <rect x="650" y="570" width="180" height="90" rx="5" ry="5" class="entity" />
  <text x="740" y="595" text-anchor="middle" class="label">COMMENTS_LIKE</text>
  <line x1="650" y1="605" x2="830" y2="605" class="line" />
  <text x="660" y="625" class="attribute pk">Comment_ID</text>
  <text x="660" y="645" class="attribute pk">Comment_liked_User_ID</text>

  <!-- RELATIONSHIPS -->

  <!-- Users to Posts -->
  <line x1="230" y1="230" x2="350" y2="230" class="line" />
  <text x="240" y="225" class="cardinality">1</text>
  <text x="340" y="225" class="cardinality">N</text>

  <!-- Users to Post_Comments -->
  <line x1="230" y1="260" x2="650" y2="260" class="line" />
  <text x="240" y="255" class="cardinality">1</text>
  <text x="640" y="255" class="cardinality">N</text>

  <!-- Posts to Post_Comments -->
  <line x1="510" y1="230" x2="650" y2="230" class="line" />
  <text x="520" y="225" class="cardinality">1</text>
  <text x="640" y="225" class="cardinality">N</text>

  <!-- Users to Friends (self-referential) -->
  <path d="M140,200 Q140,130 140,95" class="line" fill="none" />
  <text x="145" y="150" class="cardinality">N</text>
  <text x="145" y="110" class="cardinality">N</text>

  <!-- Users to Post_Likes -->
  <path d="M230,210 Q290,150 350,95" class="line" fill="none" />
  <text x="240" y="200" class="cardinality">1</text>
  <text x="340" y="105" class="cardinality">N</text>

  <!-- Posts to Post_Likes -->
  <path d="M430,200 Q430,150 430,95" class="line" fill="none" />
  <text x="435" y="150" class="cardinality">1</text>
  <text x="435" y="110" class="cardinality">N</text>

  <!-- Users to Post_Shares -->
  <path d="M230,220 Q450,135 650,95" class="line" fill="none" />
  <text x="240" y="210" class="cardinality">1</text>
  <text x="640" y="105" class="cardinality">N</text>

  <!-- Posts to Post_Shares -->
  <path d="M510,210 Q580,150 650,95" class="line" fill="none" />
  <text x="520" y="200" class="cardinality">1</text>
  <text x="640" y="105" class="cardinality">N</text>

  <!-- Users to Page_Likes -->
  <path d="M230,280 Q450,500 650,500" class="line" fill="none" />
  <text x="240" y="270" class="cardinality">1</text>
  <text x="640" y="490" class="cardinality">N</text>

  <!-- Pages to Page_Likes -->
  <line x1="510" y1="500" x2="650" y2="500" class="line" />
  <text x="520" y="495" class="cardinality">1</text>
  <text x="640" y="495" class="cardinality">N</text>

  <!-- Users to Comments_Like -->
  <path d="M140,420 Q140,550 650,615" class="line" fill="none" />
  <text x="150" y="420" class="cardinality">1</text>
  <text x="640" y="605" class="cardinality">N</text>

  <!-- Post_Comments to Comments_Like -->
  <path d="M740,340 Q740,500 740,570" class="line" fill="none" />
  <text x="745" y="340" class="cardinality">1</text>
  <text x="745" y="560" class="cardinality">N</text>
</svg>
